<?xml version="1.0" encoding="UTF-8" standalone="no"?>
<!-- Created with sK1/UniConvertor (http://sk1project.org/) -->

<svg
   xmlns:dc="http://purl.org/dc/elements/1.1/"
   xmlns:cc="http://creativecommons.org/ns#"
   xmlns:rdf="http://www.w3.org/1999/02/22-rdf-syntax-ns#"
   xmlns:svg="http://www.w3.org/2000/svg"
   xmlns="http://www.w3.org/2000/svg"
   xmlns:sodipodi="http://sodipodi.sourceforge.net/DTD/sodipodi-0.dtd"
   xmlns:inkscape="http://www.inkscape.org/namespaces/inkscape"
   width="702.92645"
   height="696.46857"
   viewBox="0 0 562.34118 557.17483"
   id="svg2"
   version="1.1"
   inkscape:version="0.48.2 r9819"
   sodipodi:docname="guvernul-romaniei-seeklogo.svg.com"
   style="fill-rule:evenodd">
  <metadata
     id="metadata90">
    <rdf:RDF>
      <cc:Work
         rdf:about="">
        <dc:format>image/svg+xml</dc:format>
        <dc:type
           rdf:resource="http://purl.org/dc/dcmitype/StillImage" />
        <dc:title></dc:title>
      </cc:Work>
    </rdf:RDF>
  </metadata>
  <defs
     id="defs88" />
  <sodipodi:namedview
     pagecolor="#ffffff"
     bordercolor="#666666"
     borderopacity="1"
     objecttolerance="10"
     gridtolerance="10"
     guidetolerance="10"
     inkscape:pageopacity="0"
     inkscape:pageshadow="2"
     inkscape:window-width="1280"
     inkscape:window-height="962"
     id="namedview86"
     showgrid="false"
     fit-margin-top="0"
     fit-margin-left="0"
     fit-margin-right="0"
     fit-margin-bottom="0"
     inkscape:zoom="0.22425732"
     inkscape:cx="351.46336"
     inkscape:cy="348.23403"
     inkscape:window-x="-8"
     inkscape:window-y="-8"
     inkscape:window-maximized="1"
     inkscape:current-layer="svg2" />
  <g
     id="g3067"
     transform="translate(-16.467301,-142.35741)">
    <g
       id="g4">
      <g
         id="g6">
        <path
           id="path8"
           d="m 273.638,396.945 48,0 0,48 -48,0 0,-48 z"
           style="fill:none;stroke:none"
           inkscape:connector-curvature="0" />
        <g
           id="g10">
          <path
             id="path12"
             d="M 531.482,265.967 C 617.634,393.578 582.854,567.278 454.065,652.638 325.262,737.999 149.937,703.547 63.7969,575.932 -22.3618,448.307 12.4239,274.604 141.216,189.248 270.024,103.886 445.339,138.352 531.482,265.967 z"
             style="fill:#ffffff;stroke:none"
             inkscape:connector-curvature="0" />
          <path
             id="path14"
             d="M 526.576,270.681 C 610.698,395.282 576.735,564.887 450.984,648.234 325.219,731.58 154.029,697.938 69.919,573.332 -14.1989,448.717 19.7665,279.116 145.516,195.774 c 125.766,-83.35 296.944,-49.697 381.06,74.907 z"
             style="fill:#004b8b;stroke:none"
             inkscape:connector-curvature="0" />
          <path
             id="path16"
             d="M 442.259,635.158 C 322.883,714.285 161.285,682.532 81.4346,564.238 1.57884,445.938 33.6341,285.849 153.01,206.722 c 119.393,-79.119 280.976,-47.359 360.834,70.931 79.858,118.293 47.804,278.393 -71.585,357.505 z M 519.869,273.66 C 438,152.388 271.387,119.637 148.991,200.756 26.5861,281.872 -6.46826,446.951 75.4171,568.234 157.276,689.503 323.894,722.258 446.292,641.132 568.684,560.011 601.75,394.94 519.869,273.66 z"
             style="fill:#ffffff;stroke:none"
             inkscape:connector-curvature="0" />
          <path
             id="path18"
             d="M 387.324,553.792 C 313.289,602.86 213.081,583.161 163.556,509.801 114.04,436.448 133.915,337.17 207.959,288.103 c 74.039,-49.071 174.242,-29.376 223.76,43.985 49.52,73.356 29.641,172.63 -44.395,221.704 z M 437.907,327.987 C 386.091,251.244 281.27,230.648 203.825,281.972 c -77.458,51.332 -98.257,155.182 -46.445,231.933 51.808,76.734 156.634,97.348 234.078,46.006 77.45,-51.327 98.247,-155.185 46.449,-231.924 z"
             style="fill:#ffffff;stroke:none"
             inkscape:connector-curvature="0" />
          <path
             id="path20"
             d="m 86.9892,406.588 c 5.688,0 10.2951,4.568 10.2951,10.2 0,5.632 -4.6071,10.2 -10.2951,10.2 -5.6792,0 -10.2935,-4.568 -10.2935,-10.2 0,-5.632 4.6143,-10.2 10.2935,-10.2 z"
             style="fill:#ffffff;stroke:none"
             inkscape:connector-curvature="0" />
          <path
             id="path22"
             d="m 507.168,406.588 c 5.68,0 10.296,4.568 10.296,10.2 0,5.632 -4.616,10.2 -10.296,10.2 -5.688,0 -10.295,-4.568 -10.295,-10.2 0,-5.632 4.607,-10.2 10.295,-10.2 z"
             style="fill:#ffffff;stroke:none"
             inkscape:connector-curvature="0" />
          <path
             id="path24"
             d="m 318.826,413.793 -0.487,0.277 0.193,0.538 -0.689,-0.039 -0.187,0.683 -0.712,-0.307 -0.655,0.476 -0.531,-0.441 -0.679,0.31 -0.197,-0.614 -0.717,0.031 0.074,-0.575 -0.682,-0.131 0.155,-0.615 -0.643,-0.403 0.561,-0.376 -0.271,-0.576 0.586,-0.341 0,-0.607 0.677,-0.065 0.187,-0.58 0.717,0.234 0.457,-0.506 0.495,0.506 0.686,-0.234 0.19,0.58 0.643,0.027 0.035,0.615 0.725,0.198 -0.151,0.619 0.573,0.404 -0.538,0.409 0.185,0.503 z m 17.336,0.331 c 0.159,1.938 -4.661,2.096 -4.902,-1.164 0.113,-3.332 4.855,-3.371 4.855,-1.509 -1.468,-0.233 -2.243,0.389 -2.243,1.509 0.078,0.852 0.809,1.437 2.29,1.164 z m -89.082,-5.583 50.231,0 0.124,-0.165 -0.124,-46.444 51.263,0 0.043,46.521 -49.524,0.047 0.016,0.041 c 2.731,9.533 5.324,17.484 7.862,24.213 l 16.195,0.004 0,-2.572 c -0.802,1.118 -2.003,0.906 -2.638,-0.299 -0.985,0.956 -2.004,0.706 -2.434,-0.496 -0.937,0.953 -2.22,0.795 -2.604,-0.66 -0.519,1.613 -1.29,2.61 -3.332,2.526 -1.883,0.541 -2.472,0.496 -2.952,0.047 -1.538,0.533 -1.952,0.533 -2.522,0.245 l 3.634,-11.905 c 0.643,-2.188 2.092,-3.267 5.045,-2.768 2.607,0.457 2.519,3.022 1.918,4.753 1.968,0.33 3.247,0.414 5.373,0.492 0.09,0 0.175,-0.005 0.245,-0.016 -0.101,-0.042 -0.21,-0.062 -0.321,-0.062 0.894,-0.74 1.061,-1.113 1.491,-1.942 l -0.938,0 c 0.984,-0.794 1.182,-1.098 1.573,-1.889 -0.759,0.503 -3.076,1.896 -3.952,0.457 0.054,-0.215 2.522,-0.414 2.701,-0.952 -0.089,-0.084 -0.054,-0.165 -0.089,-0.292 -1.155,-0.369 -1.969,-0.165 -2.864,0.169 -0.337,-1.362 0.465,-1.943 3.096,-1.908 l 0,-0.008 c 5.553,-1.654 4.27,0.289 6.018,3.018 -0.376,0 -0.768,-0.085 -1.101,-0.085 0.465,0.83 0.589,1.118 1.232,1.821 -0.472,-0.124 -0.81,-0.208 -1.15,-0.208 0.34,0.829 0.507,1.079 1.019,1.735 -0.101,0 -0.206,0.035 -0.303,0.084 0.07,0.008 0.147,0.023 0.221,0.043 1.531,-0.334 2.469,-0.499 3.453,-0.868 -0.772,-1.693 -0.896,-3.762 1.926,-4.503 2.045,-0.457 3.618,0.453 4.308,1.774 l 6.572,12.852 c -0.25,0.496 -0.847,0.496 -2.897,-0.037 -0.69,0.368 -1.073,0.406 -2.692,-0.212 -1.456,0.249 -2.305,0 -3.498,-2.553 -0.213,1.275 -1.027,1.558 -2.271,0.569 -0.294,1.362 -1.36,1.607 -2.298,0.41 -0.259,1.29 -1.196,1.574 -2.309,0.668 l 0.253,2.584 18.448,0.023 0,3.72 0.055,0 0,9.129 c -0.171,10.599 -16.26,15.241 -24.819,18.523 -9.241,-9.355 -17.238,-23.61 -26.386,-55.389 -3.034,10.541 -5.886,19.141 -8.687,26.286 l -2.255,0.215 0,-2.273 -1.449,0 c 0.895,-1.946 0.677,-2.764 1.019,-4.342 0.213,-1.029 1.197,-0.906 1.282,-0.249 0.767,-0.938 -0.387,-2.104 -1.538,-1.068 -0.387,-0.791 -0.465,-0.99 -0.128,-1.735 0.466,-0.411 1.449,-0.368 1.492,0.45 1.03,-0.661 -0.426,-3.387 -2.341,-1.156 -0.348,-0.496 -0.519,-0.868 -0.519,-1.325 0.644,-0.737 1.245,-0.614 1.322,0.085 1.073,-0.822 -0.678,-2.557 -1.957,-1.152 -1.155,-2.073 -2.05,-7.071 0.938,-7.732 1.701,-0.373 2.685,0.288 3.498,1.448 0.132,0.453 0.597,1.324 -0.294,1.654 0.171,0.33 0.426,0.495 0.802,0.618 -1.275,0.868 0.647,2.976 0.647,4.012 0.426,-0.583 0.589,-0.956 0.426,-1.532 0.252,0.246 0.217,0.411 0.341,0.746 0.554,-0.746 0.047,-1.287 -0.124,-1.783 0.295,0.25 0.376,0.419 0.601,0.707 0.295,-1.49 0.124,-1.697 -0.306,-2.196 0.473,-0.077 0.508,-0.373 0.771,-0.737 -1.415,-0.123 -2.139,-3.148 -4.018,-3.843 -5.25,-1.57 -6.612,3.302 -5.161,7.602 0.6,1.815 1.922,4.668 2.434,6.441 0.34,1.156 0.294,2.692 -0.725,5.087 l -0.043,0 -1.62,0 0,2.273 -2.311,0 c -3.542,-3.098 -4.649,-6.154 -6.835,-8.511 0.737,0.452 1.721,1.151 3.034,1.239 -0.511,-0.787 -1.066,-1.12 -1.066,-2.073 1.109,1.207 2.774,1.168 3.716,0.918 -1.201,-0.952 -2.003,-1.574 -2.049,-3.724 1.026,0.826 1.403,1.282 2.049,1.988 1.062,-1.942 0.469,-2.975 -0.511,-4.303 0.891,0.618 0.725,0.25 1.662,0.453 -0.348,-0.864 -0.124,-0.948 -0.984,-1.731 0.817,0.334 0.511,0.039 1.198,0.039 -0.303,-0.619 -0.09,-0.987 -1.151,-1.613 0.724,0 0.724,-0.365 1.061,-0.699 -2.476,-0.745 -0.984,-1.658 -3.708,-2.565 0.81,-1.24 -1.03,-2.061 -1.666,-0.821 -0.473,-0.211 -0.473,-0.334 -0.938,-0.46 0.214,-1.732 -2.096,-1.57 -1.79,0 -1.29,0.375 -1.716,0.46 -2.646,0.955 -0.093,0.284 -0.128,0.538 -0.093,0.948 -1.151,0.58 -1.573,0.791 -2.859,1.198 -0.554,0 -0.636,0.457 -0.043,0.457 0,0.288 0.166,1.405 0.302,1.9 0.043,0.373 0.26,0.288 0.294,0.035 0,-0.119 0.942,-0.826 1.279,-0.864 0.047,-0.41 0.217,-0.41 0.26,0 0.298,0.085 0.554,0.411 0.476,1.49 -3.971,-0.373 -4.525,-0.373 -4.832,-1.079 -0.17,-0.902 -0.813,-0.737 -0.34,0.249 0.17,0.457 0.34,0.869 4.994,1.202 -0.376,0.372 -0.853,0.457 -1.79,0.534 0,-0.415 -0.217,-0.415 -0.263,0 -0.035,0 -0.167,0.173 -0.167,0.456 -0.213,0.212 -0.298,0.461 -0.298,0.496 -0.938,-0.165 -1.574,-0.661 -3.112,-0.496 -1.705,-2.226 -4.014,-0.99 -6.276,-4.787 l -0.062,0.024 0.007,-0.008 0.67,-0.319 0.833,1.455 0.857,-0.411 -0.848,-1.455 c 3.068,-1.274 5.032,-1.892 8.748,-2.015 1.143,-1.164 1.79,-1.651 2.898,-2.891 -5.079,-0.334 -7.989,1.278 -12.123,3.962 l -0.05,0.027 -0.93,-1.593 -0.815,0.41 0.508,0.887 c -0.43,-0.514 -1.205,-0.936 -2.003,-0.518 -1.019,0 -1.491,0.126 -1.833,0.867 -1.189,0.123 -1.232,2.277 -0.294,2.646 l 0.05,-0.043 0.012,0.043 -0.492,0.249 0.465,0.787 1.154,-0.557 c 0.008,0.522 0.132,0.765 0.554,1.095 0.218,-0.212 0.473,-0.373 0.772,-0.622 0.089,0.779 0.166,1.328 0.561,2.149 0.248,-0.253 0.465,-0.41 0.678,-0.621 0.035,0.994 0.09,1.324 0.341,2.107 0.295,-0.287 0.636,-0.58 0.895,-0.783 -0.127,1.029 -0.127,1.693 0.427,2.192 0.216,-0.372 0.251,-0.622 0.341,-1.033 0.465,0.453 0.984,1.033 1.836,1.401 0.089,0.162 0.345,0.458 0.473,0.619 -0.519,0.495 -0.86,0.625 -1.581,0.706 0.767,0.58 1.197,0.58 2.17,0.288 -0.418,0.457 -0.632,0.907 -1.198,1.156 0.733,0.13 1.12,0.13 1.806,0.13 -1.751,0.035 -2.736,0.327 -4.533,1.689 0.178,-0.744 0.597,-1.654 -0.125,-1.45 -0.387,0.126 -0.681,0.088 -1.03,-0.239 -0.419,0 -0.376,0.53 -0.376,1.11 -0.043,-0.871 -0.255,-1.651 -0.903,-1.405 -0.17,0.41 -0.422,0.622 -1.189,0.534 -0.151,0.157 0,0.422 0.178,0.636 0.124,0.104 0.252,0.231 0.376,0.353 0,0.024 -0.197,-0.141 -0.376,-0.353 -0.341,-0.272 -0.65,-0.391 -0.903,-0.053 0.082,0.571 0,0.744 -0.302,1.067 0.167,0.495 0.213,0.38 1.24,0.422 -0.856,0 -1.073,0.119 -1.321,0.534 0.426,0.369 0.554,0.829 0.511,1.325 0.678,0.414 2.17,-0.369 2.771,-0.956 0.132,0.291 0.132,0.625 0,0.994 1.243,-0.288 2.173,-0.903 2.433,-1.278 0.132,0.375 -0.124,0.622 -0.047,1.193 0.69,-0.203 1.121,-0.322 1.585,-0.871 -0.124,0.422 -0.17,0.587 -0.295,1.083 0.938,-0.246 1.19,-0.289 1.752,-1.083 -0.089,0.549 -0.054,0.549 0,0.956 1.054,-0.495 1.236,-0.461 1.872,-1.278 -0.171,0.698 -0.124,0.744 -0.082,1.24 0.977,-0.496 1.279,-0.746 1.62,-1.536 0.131,0.296 0.077,0.58 0.213,1.079 0.554,-0.334 0.895,-0.657 1.325,-1.283 0.124,0.288 -0.213,0.665 -0.213,1.033 0.767,-0.158 1.15,-0.368 1.538,-0.902 0.849,2.922 4.773,2.922 5.374,4.622 l 0,1.616 -4.82,0 0,-2.234 -4.99,0 0,2.273 -4.832,0 0,-2.273 -5.161,0 0,2.273 -5.481,0 0.062,-26.736 z m 3.307,-8.438 0,-23.172 c 0,-3.559 2.856,-6.949 6.905,-6.127 3.293,0.706 4.785,2.277 3.293,5.417 2.05,1.24 3.499,1.781 6.44,2.276 0.426,-0.787 1.108,-1.819 1.752,-2.602 -0.385,0.084 -0.589,0.084 -1.019,0.161 0.941,-0.868 2.049,-1.156 2.262,-2.023 0.128,-0.53 -0.457,-1.536 -0.957,-1.843 -0.418,0.057 -0.848,0.042 -1.259,0.042 l 0,2.046 -1.283,0 0,-1.97 0,-0.003 0,-0.588 c -0.329,0.22 -0.596,0.499 -0.755,0.88 -0.981,-1.524 -0.28,-2.392 0.794,-2.849 -0.039,-1.021 0,-1.72 -0.039,-2.699 -0.473,0 -1.115,0.084 -1.84,0.208 0,-0.458 -0.043,-0.991 -0.043,-1.447 0.856,0.126 1.027,0.168 1.883,0.126 0,-0.579 -0.213,-1.367 -0.302,-1.943 0.644,0.081 1.232,0.043 1.879,0 -0.089,0.618 -0.294,1.236 -0.294,1.943 0.849,0.042 1.15,-0.042 1.879,-0.165 0,0.571 0.043,0.952 0,1.362 -0.519,-0.084 -1.372,-0.084 -1.879,-0.13 0,0.626 0.035,1.866 0.035,2.403 0.24,-0.042 0.484,-0.069 0.697,-0.077 l 0.008,0.004 0.019,-0.015 0.008,0 c 0.69,-1.486 3.328,-1.896 4.948,-1.524 2.263,0.495 2.049,3.102 4.061,4.212 -0.69,0.165 -0.737,0.334 -1.167,0.081 0.217,1.12 0.771,1.369 1.073,2.272 -0.515,-0.123 -0.596,-0.123 -0.98,-0.165 0.511,0.706 0.98,1.574 1.155,2.23 -0.554,-0.038 -0.644,-0.115 -1.066,-0.115 0.376,0.66 0.849,1.693 0.938,2.308 2.898,-0.162 4.314,-0.457 6.023,-1.483 -1.112,-3.017 -1.325,-4.841 2.728,-6.119 3.03,-0.538 7.218,0.161 7.218,6.649 l 0,21.863 c 0.035,1.778 0.248,2.599 1.232,3.594 -1.492,-0.334 -2.646,-0.91 -4.138,-3.639 -0.895,-0.085 -1.801,-0.618 -3.115,-3.014 -2.693,-0.834 -2.906,-0.906 -2.906,-9.379 -0.26,0.745 -0.554,0.745 -1.402,1.071 -0.984,-0.161 -1.326,-0.66 -1.675,-1.19 -0.251,0.619 -0.464,0.902 -1.238,0.983 -0.383,-0.204 -0.588,-0.326 -1.061,-0.826 0.81,1.328 2.683,4.258 3.974,6.205 -0.876,-0.247 -1.128,-0.288 -1.988,-0.53 1.492,2.675 1.778,3.224 3.704,6.28 0.167,0.292 0.255,0.208 0.554,0.208 1.151,0.084 1.403,-0.584 2.092,0.041 0,0.028 -0.015,0.051 -0.035,0.081 0.008,-0.018 0.027,-0.018 0.035,-0.034 0.647,-0.212 1.449,0.122 1.244,1.24 -0.252,-0.357 -0.457,-0.565 -1.027,-0.476 0,0.035 -0.011,0.08 -0.046,0.138 -0.938,0.33 -0.806,-0.288 -1.922,-0.038 0.767,0.952 1.67,0.698 1.832,1.689 -0.019,0.111 -0.062,0.203 -0.127,0.253 l 0.019,0.181 c 0.484,0.487 0.341,1.136 -0.096,1.677 -0.245,-1.267 -0.656,-0.994 -0.753,-1.282 l -0.065,-0.05 c -0.089,0.05 -0.213,0.065 -0.38,0.008 -1.372,-1.037 -0.43,-1.321 -1.07,-2.15 -0.212,-0.085 -0.255,-0.127 -0.379,0.042 -0.43,1.409 0.632,1.57 -0.477,2.565 -0.143,0.026 -0.251,0.015 -0.341,0 l 0,0.003 c 0.179,0.492 -0.721,0 -0.766,1.24 -1.023,-0.71 -0.772,-1.324 -0.295,-1.488 l -0.02,-0.043 c -0.046,-0.088 -0.205,-0.023 -0.286,-0.127 0.093,-0.618 1.027,-1.16 1.492,-2.15 0,-0.169 0,-0.169 -0.249,-0.246 -1.29,0.411 -0.597,0.864 -2.045,1.033 -0.109,-0.054 -0.155,-0.103 -0.179,-0.15 -0.182,0.389 -0.763,-0.042 -0.805,0.937 -0.676,-0.533 -0.355,-1.689 0.383,-1.654 0.097,0 -0.171,-0.139 0.035,-0.331 0.349,-0.452 0.984,-0.081 2.014,-0.618 0.214,-0.084 0.124,-0.207 0.124,-0.25 -1.146,-1.6 -3.109,-3.803 -3.985,-5.505 -0.089,0.907 -0.301,1.774 -0.72,2.104 -0.941,-1.819 -1.325,-2.437 -2.604,-4.418 -0.217,0.33 -0.136,0.207 -0.473,0.452 -0.263,-0.041 -0.511,-0.287 -0.728,-0.368 1.031,4.914 1.45,5.989 4.006,10.035 -0.588,0.495 -2.468,1.033 -3.235,1.49 0.294,0.614 0.644,0.991 1.019,1.57 -1.484,0.867 -2.297,1.244 -4.514,2.023 -2.096,-0.695 -2.821,-1.029 -4.955,-2.023 0.379,-0.618 0.72,-1.24 0.972,-1.82 -1.484,-0.745 -2.255,-1.071 -3.96,-1.816 3.797,-4.871 4.173,-5.455 5.587,-9.424 -0.213,0.088 -0.383,0.164 -0.724,0.333 -0.082,-0.169 -0.383,-0.622 -0.473,-0.787 -1.112,1.99 -1.36,2.027 -2.774,3.598 -0.356,-0.468 -0.484,-0.63 -0.5,-1.167 -0.364,0.35 -2.085,1.957 -5.242,5.098 0,0.042 -0.09,0.169 0.124,0.25 1.019,0.541 1.701,0.165 2.049,0.579 0.062,0.146 0.054,0.223 0.019,0.269 -0.046,0 -0.088,0.008 -0.135,0.016 0.635,0.302 1.1,1.22 0.546,1.662 -0.046,-0.952 -0.643,-0.538 -0.813,-0.91 l 0,-0.004 c -0.02,0.05 -0.074,0.084 -0.17,0.131 -0.477,-0.047 -2.353,-1.36 -2.353,-0.746 0.466,0.949 1.41,1.479 1.496,2.066 -0.074,0.104 -0.585,-0.003 -0.298,0.165 0.298,0.169 0.728,0.787 -0.295,1.447 -0.034,-1.048 -0.697,-0.832 -0.787,-1.063 -0.027,-0.061 -0.069,0.038 -0.116,-0.019 -0.848,-0.162 -0.251,-1.236 -0.681,-2.596 -0.125,-0.168 -0.167,-0.13 -0.384,-0.045 -0.678,0.791 0.294,1.071 -1.108,2.065 -0.206,0.061 -0.314,0.043 -0.43,-0.02 -0.047,0.385 -0.512,0 -0.759,1.306 -0.466,-0.576 -0.652,-1.19 -0.055,-1.685 0.136,-0.127 -0.089,-0.069 -0.163,-0.346 0.175,-0.948 1.07,-0.698 1.837,-1.647 -1.108,-0.207 -0.942,0.285 -1.872,-0.046 l -0.008,0.005 c -0.635,-0.124 -0.848,0.041 -1.108,0.413 -0.259,-1.074 0.597,-1.405 1.241,-1.197 l 0.019,0.019 c -0.019,-0.027 -0.023,-0.038 -0.023,-0.069 0.685,-0.614 0.937,0.042 2.091,-0.034 0.338,0 0.385,0.034 0.597,-0.208 0.853,-0.868 4.363,-4.991 5.223,-5.981 -0.662,0.268 -1.073,0.18 -1.867,-0.023 0.813,-1.118 2.046,-3.64 3.119,-5.616 0,-0.047 -0.392,0.745 -0.984,0.944 -0.686,-0.199 -0.892,-0.41 -1.232,-1.033 -0.473,0.745 -0.736,0.707 -1.457,1.198 -0.725,-0.25 -1.108,-0.453 -1.539,-1.109 -0.387,3.343 -0.763,6.445 -2.944,7.766 -0.507,1.9 -1.19,2.89 -3.417,3.842 -0.43,1.69 -1.705,3.387 -3.883,4.131 0.43,-0.909 0.647,-1.489 0.86,-2.48 z m 4.991,-35.158 0.635,-0.418 0,-0.699 0.725,-0.084 0.213,-0.699 0.818,0.288 0.507,-0.575 0.519,0.575 0.767,-0.288 0.209,0.699 0.686,0.046 0.047,0.699 0.806,0.246 -0.171,0.748 0.601,0.453 -0.554,0.499 0.213,0.568 -0.554,0.334 0.213,0.66 -0.767,-0.038 -0.217,0.784 -0.768,-0.37 -0.728,0.577 -0.554,-0.538 -0.767,0.373 -0.217,-0.703 -0.767,0.038 0.089,-0.698 -0.771,-0.165 0.174,-0.703 -0.69,-0.499 0.609,-0.411 -0.306,-0.699 z m 23.987,-0.625 c 0,-1.562 6.152,-2.234 6.318,1.82 -0.294,3.924 -6.36,3.347 -6.36,1.489 1.924,1.033 3.249,-0.372 3.284,-1.489 -0.035,-1.114 -1.573,-2.438 -3.242,-1.82 z m 37.49,100.057 c -1.543,0.18 -4.445,0.407 -6.022,-1.202 -2.126,1.842 -4.719,2.499 -6.888,1.908 l -0.109,0.034 0,0.004 c -1.457,1.229 -3.247,0.638 -1.41,-0.564 -1.535,-0.288 -3.631,-0.925 -3.631,-2.572 0.252,-0.561 0.897,-0.641 1.453,-0.038 l 0.108,-0.039 c 0.815,-0.545 0.547,-0.241 1.039,-1.04 -2.856,-2.953 4.487,-5.636 2.731,-6.915 -0.844,-0.636 -1.533,0.227 -2.041,0.903 -0.806,-1.394 0.341,-2.695 2.557,-2.695 -0.767,-1.639 -2.127,-4.515 -3.541,-6.166 -1.237,-1.451 -2.271,-4.338 -1.665,-7.993 1.401,-6.131 0.166,-5.044 -0.218,-6.837 -0.512,-2.161 0.133,-3.059 2.007,-3.996 -1.233,2.061 3.545,3.32 1.669,6.507 5.545,0.925 1.876,5.444 3.453,7.835 -4.05,-1.451 -1.667,-4.484 -4.096,-4.553 -1.414,-0.042 4.131,7.641 4.146,8.185 0.217,-0.334 0.427,-0.422 1.019,-0.495 0.341,-0.335 0.643,-0.476 1.147,-0.476 -0.163,1.785 -0.163,2.054 -0.035,3.685 1.569,2 2.933,3.847 3.541,5.122 0.981,2.019 1.069,5.497 -0.38,8.561 1.581,-0.903 2.422,-0.98 3.584,-1.759 0.217,0.518 0.298,1.052 0.175,1.494 0.678,0.069 1.065,0 2.084,0.814 -0.852,0.196 -1.747,0.46 -2.13,1.052 0.557,0 1.325,0.599 1.453,1.236 z m -23.446,0.18 c 1.589,1.082 0.047,1.685 -1.398,0.564 l 0.023,-0.019 -0.152,-0.038 c -2.262,0.587 -4.99,-0.047 -7.218,-1.889 -2.045,1.946 -4.655,1.681 -6.658,1.801 0.163,-0.787 0.852,-1.344 1.789,-1.502 -0.507,-0.89 -1.107,-1.044 -2.003,-1.224 0.768,-0.599 1.326,-0.565 2.256,-0.906 -0.128,-0.442 -0.206,-1.045 0,-1.563 1.199,0.779 2.094,0.856 3.721,1.759 -1.492,-3.064 -1.414,-6.542 -0.384,-8.561 0.706,-1.436 2.453,-3.628 4.336,-5.924 l -0.667,0.806 c 0.167,-1.635 0.167,-1.9 -0.045,-3.689 0.553,0 0.856,0.141 1.243,0.476 0.597,0.073 0.814,0.161 1.062,0.483 3.498,-4.223 6.703,-8.238 4.313,-8.173 -2.558,0.069 -0.035,3.102 -4.267,4.553 1.62,-2.391 -2.174,-6.91 3.584,-7.835 -1.964,-3.187 2.988,-4.446 1.701,-6.507 1.968,0.937 2.612,1.835 2.093,3.996 -0.419,1.793 -1.697,0.706 -0.248,6.837 0.643,3.655 -0.43,6.542 -1.709,7.993 -1.461,1.651 -2.864,4.527 -3.665,6.166 2.34,0 3.494,1.301 2.681,2.695 -0.555,-0.676 -1.232,-1.539 -2.127,-0.903 -1.837,1.279 5.758,3.962 2.809,6.915 0.508,0.799 0.232,0.495 1.107,1.044 l 0.09,0.035 c 0.597,-0.603 1.236,-0.565 1.581,0.038 0,1.647 -2.259,2.284 -3.848,2.572 z m -21.153,-10.569 -0.028,0 0.028,-7.762 1.708,-2.192 3.034,-1.317 3.03,1.186 1.757,2.323 0.643,2.63 c -1.216,2.28 -2.454,4.353 -3.694,6.249 -0.717,-0.261 -1.484,-0.652 -1.871,-1.074 -1.062,1.531 -3.294,1.205 -4.607,-0.043 z m -9.764,0.17 -0.012,0 c -1.798,0.909 -3.847,0.79 -4.991,-0.873 -1.537,1.698 -3.336,1.698 -4.92,0.746 l -0.035,0 0,-7.893 2.138,-2.604 2.988,-0.783 3.157,1.083 1.675,2.43 0,7.894 z m -6.684,6.983 c 13.91,4.449 27.729,9.159 41.573,13.808 15.548,-4.622 51.468,-13.732 53.688,-26.34 l 0.008,-0.045 c 0.128,-0.741 0.233,-2.385 0.198,-3.141 l -0.066,-86.693 -106.94,0.011 0,90.203 c 0.012,0.195 0.027,0.376 0.035,0.564 0.593,5.946 6.153,9.253 11.504,11.633 z"
             style="fill:#ffffff;stroke:none"
             inkscape:connector-curvature="0" />
          <path
             id="path26"
             d="m 317.234,443.336 1.158,0 0,1.65 2.217,0 0,-2.891 -1.066,0 0,-1.451 1.066,0 0,-2.269 -1.066,0 0,1.24 -1.151,0 0,-1.24 -1.158,0 0,1.24 -1.186,0 0,-1.24 -1.205,0 0,2.269 1.205,0 0,1.451 -1.205,0 0,2.891 2.391,0 0,-1.65 z"
             style="fill:#ffffff;stroke:none"
             inkscape:connector-curvature="0" />
          <path
             id="path28"
             d="m 353.975,448.572 c 0.519,13.363 -20.193,16.799 -56.575,30.163 -34.634,-11.702 -55.212,-14.557 -55.832,-27.388 l 0,-95.028 112.407,-0.046 0,92.299 z m -82.123,-147.255 0,-2.38 c 4.511,-0.046 9.518,1.616 12.196,2.154 l 1.449,3.451 c -3.696,-1.406 -9.518,-3.248 -13.645,-3.225 z m 20.379,-10.588 c 0.012,0.046 0.028,0.099 0.046,0.154 0.473,1.98 -0.771,3.962 -2.789,4.437 -2.034,0.469 -4.061,-0.744 -4.557,-2.726 -0.008,-0.053 -0.019,-0.103 -0.035,-0.157 l 7.335,-1.708 z m 48.099,189.814 c 0.058,0.173 0.078,0.269 0.058,0.292 l -0.112,-0.296 0.054,0.004 z m 0.179,0.051 c 0.058,0.195 0.132,0.375 0.197,0.559 -0.1,-0.199 -0.197,-0.383 -0.298,-0.579 0.027,0.004 0.066,0.012 0.101,0.02 z m 60.4,-82.087 c 0.492,0 3.293,1.678 3.781,1.678 -3.336,-10.043 -2.565,-24.106 -2.297,-39.846 1.038,0.438 3.114,2.119 4.149,2.565 -0.802,-8.899 -0.589,-10.926 -0.589,-15.97 0,-31.187 -16.42,-39.543 -29.249,-42.995 -22.931,-5.175 -38.861,12.784 -33.365,31.811 -1.306,5.962 -4.647,10.473 -10.285,12.995 -4.604,1.59 -11.105,1.989 -13.805,-3.228 1.204,0.752 2.076,1.152 3.603,1.189 -1.383,-1.439 -2.166,-3.528 -2.817,-5.942 l -0.008,0 c -1.066,-4.066 -1.778,-9.033 -4.347,-13.399 2.569,2.205 3.468,4.45 4.363,6.489 1.27,-5.875 -0.535,-13.027 -3.235,-16.248 2.251,1.11 2.297,0.837 3.917,2.514 0.368,-3.259 -0.136,-4.63 -1.128,-6.702 -0.089,-4.638 -0.581,-6.135 -2.789,-8.876 2.297,0.975 3.917,0.837 5.982,-0.307 -3.057,-1.06 -5.126,-2.826 -7.292,-6.089 -2.79,-4.151 -7.202,-9.133 -12.748,-10.853 -4.42,-1.413 -8.291,-1.198 -15.994,0.177 -2.165,0.268 -7.399,2.053 -12.184,1.811 l 0.422,2.53 -2.521,0.638 c -0.21,0.053 -0.43,0.111 -0.683,0.165 l 0,-2.43 0.039,-0.012 -0.012,-0.376 -0.027,-0.906 0,-4.166 c 3.356,0.054 6.304,0.354 9.612,0.746 l -0.175,-6.454 c -3.354,0.495 -6.573,0.749 -9.983,0.983 0.353,-3.106 0.682,-6.02 1.252,-9.076 -2.244,0.135 -4.383,0.154 -6.599,0.015 0.581,3.064 0.895,5.866 1.174,9.003 -3.216,-0.199 -6.254,-0.403 -9.427,-0.814 l 0.194,6.181 c 1.368,-0.173 7.253,-0.315 9.276,-0.368 l 0,8.749 c -3.364,1.136 -6.289,3.547 -3.549,9.928 0.93,-2.212 1.669,-3.609 3.611,-4.25 0,10.138 0.778,21.268 -1.825,31.004 3.587,-1.24 4.855,-1.283 8.536,-0.107 -2.453,-8.531 -2.29,-17.706 -2.035,-26.498 0.356,0.035 0.71,0.081 1.058,0.123 5.25,0.691 10.681,2.691 12.157,8.595 1.395,5.475 -2.91,8.416 -5.28,12.742 -4.525,8.981 -2.836,16.394 -7.048,20.778 1.395,0.131 2.934,-0.096 2.934,-0.096 -3.344,4.519 -9.706,4.519 -14.487,3.098 -3.894,-1.363 -7.812,-6.058 -9.528,-11.409 7.218,-23.043 -16.89,-37.643 -34.221,-32.595 -9.261,2.699 -27.22,8.538 -27.944,43.474 -0.5,5.141 0.36,8.189 -1.034,13.406 1.616,-0.48 2.25,-0.752 3.688,-1.462 0,14.465 -0.035,33.883 -3.022,40.34 1.627,-0.395 2.891,-1.19 3.759,-1.946 1.251,59.931 1.983,103.893 -2.352,114.334 6.59,-2.126 9.524,-3.013 13.274,-7.566 1.813,-0.253 3.549,-0.503 5.115,-0.918 l 0,-73.571 c -2.864,-10.838 -5.646,-21.703 -8.242,-32.601 -1,-4.22 -1.177,-7.034 0.031,-11.257 l 1.26,-4.353 3.506,2.968 c 1.395,1.178 2.515,2.322 3.445,3.542 l 0,-45.63 c 0,-0.906 0.739,-1.65 1.646,-1.65 0.899,0 1.635,0.744 1.635,1.65 l 0,52.134 c 7.486,21.345 13.158,43.293 18.924,65.183 l 0,-126.642 c 0,-0.914 0.744,-1.647 1.647,-1.647 0.907,0 1.65,0.733 1.65,1.647 l 0,139.012 c 0.364,1.385 0.74,2.768 1.128,4.165 3.154,-4.254 5.192,-8.834 6.311,-15.621 2.066,2.848 5.664,5.164 10.637,7.356 -4.061,6.975 -4.677,9.052 -11.271,12.469 4.744,2.035 9.597,2.391 13.793,-0.227 -0.073,0.261 -0.163,0.5 -0.24,0.745 -1.318,2.377 -2.247,4.522 -3.41,6.496 -1.449,2.499 -2.631,3.474 -4.4,5.566 -3.578,1.16 -5.259,-0.625 -9.204,0.265 -0.07,0.035 -0.136,0.062 -0.206,0.1 -0.251,-0.703 -0.465,-1.343 -0.34,-1.393 0.5,-0.169 0.91,-0.4 1.093,-0.876 0.492,0.038 1.305,-0.453 1.573,-0.844 0.724,0.088 1.216,-0.265 1.449,-0.799 l 5.593,-1.635 c 0.631,0.307 1.447,0.572 1.722,0.042 1.844,-0.753 2.255,-1.809 2.433,-2.561 -0.538,-0.487 -1.848,-1.417 -3.745,-0.71 -0.581,-0.365 -1.084,0.576 -1.173,0.975 l -5.644,1.674 c -0.589,-0.308 -1.306,-0.392 -1.806,0 -0.585,-0.265 -1.394,-0.131 -1.762,0.311 -0.198,-0.103 -0.93,-0.423 -1.395,-0.311 -8.447,-29.718 -15.988,-62.934 -26.282,-92.214 -1.306,-3.712 -2.755,-5.881 -5.735,-8.407 -1.081,3.762 -0.895,6.019 0,9.824 7.048,29.499 16.654,63.29 24.384,92.924 0.046,0 -1.151,0.399 -1.403,0.929 -0.445,-0.177 -1.352,0.269 -1.674,0.71 -0.581,-0.05 -1.216,0.303 -1.395,0.837 l -5.366,1.632 c -0.725,-0.261 -1.225,-0.392 -1.674,0.092 -1.445,0.134 -2.573,1.682 -2.801,2.43 0.585,0.487 2.165,1.34 3.704,0.664 0.628,0.134 1.262,-0.303 1.666,-1.014 l 5.285,-1.546 c 0.403,0.487 1.259,0.261 1.763,0 0.492,0.306 1.484,0.13 1.806,-0.224 0.492,0.4 1.038,0.446 1.662,0.269 0.178,-0.045 0.271,-0.088 0.449,-0.088 0.089,0.235 0.357,1.213 0.589,2.046 -3.615,1.574 -3.952,3.11 -3.185,4.849 0.031,0.284 0.101,0.584 0.209,0.887 -1.925,0.53 -3.452,2.852 -2.409,4.703 0.038,0.771 0.414,1.535 1.255,2.161 l 0.046,-0.016 0.09,-0.003 c -1.291,1.555 -2.178,4.299 1.828,4.925 -0.577,3.298 1.461,3.214 2.953,3.697 0.872,0.757 1.495,0.983 2.867,1.382 2.08,0.177 3.22,0.58 5.068,1.552 1.55,0.41 2.863,0.318 4.49,-0.396 0.868,-0.491 1.182,-0.979 1.504,-1.731 2.265,-1.068 2.766,-1.471 3.177,-4.012 2.244,-2.845 3.917,-10.208 4.382,-11.644 2.093,-6.461 5.618,-11.909 9.865,-17.414 -0.751,4.572 0.19,9.943 3.882,12.719 0.535,-9.943 4.661,-14.965 9.168,-21.791 1.278,0.396 2.596,0.799 3.937,1.225 -3.232,11.268 -6.022,20.02 -10.985,28.39 l 0.221,-0.016 c -4.03,6.688 -9.462,13.141 -17.637,20.412 3.088,2.749 7.032,5.337 10.388,8.408 -0.996,1.516 -1.86,2.269 -3.089,3.736 2.317,1.416 11.833,7.275 14.58,8.967 -0.991,1.893 -2.119,3.095 -3.471,5.222 10.643,6.768 16.023,9.371 26.853,15.609 0.155,-0.069 17.687,-8.38 28.796,-14.791 -0.992,-1.383 -2.038,-3.026 -3.173,-4.761 6.025,-3.566 11.062,-6.865 15.684,-9.882 -1.216,-1.382 -1.949,-2.188 -3.263,-3.789 5.851,-4.138 6.297,-4.496 10.794,-7.969 -18.384,-17.077 -24.8,-30.943 -31.805,-50.477 2.022,-0.694 3.994,-1.366 5.854,-2.015 5.56,7.743 8.366,10.907 10.71,21.491 3.793,-3.713 2.891,-7.352 3.204,-12.477 0.151,0.146 0.294,0.303 0.438,0.445 -0.027,-0.014 -0.062,-0.042 -0.101,-0.065 -0.058,-0.057 -0.112,-0.096 -0.166,-0.149 0.019,0.023 0.035,0.053 0.054,0.08 -0.066,-0.05 -0.136,-0.096 -0.209,-0.18 4.203,6.99 6.726,10.795 10.025,16.365 0.376,3.114 0.438,4.765 1.17,6.446 0.032,0 0.066,0 0.101,0.004 0.492,1.244 1.333,2.469 2.917,4.25 0,2.188 1.903,4.234 3.542,5.037 0.132,0.66 0.267,0.887 0.581,1.382 1.271,1.279 4.677,1.382 6.537,0.979 1.406,-1.117 2.266,-1.025 3.669,-1.39 1.371,-0.215 1.371,-0.311 2.999,-0.618 1.267,-0.672 2.259,-0.979 3.03,-1.332 1.046,-0.899 0.868,-2.587 0,-3.252 1.983,-1.321 4.704,-2.871 2.069,-4.703 -0.128,-0.107 -0.263,-0.215 -0.415,-0.318 1.201,-2.085 0.973,-4.293 -0.565,-5.974 0,-3.209 -1.581,-4.852 -3.987,-6.948 -0.043,-0.012 -0.078,-0.016 -0.116,-0.031 4.509,-15.168 9.232,-34.717 13.917,-52.277 1.988,0.139 2.298,-0.925 2.619,-2.076 1.485,-0.404 1.802,-1.459 0.763,-2.7 1.903,-0.794 2.027,-1.949 1.492,-3.401 5.824,-6.592 9.927,-10.929 10.602,-13.141 0.554,-2.345 -1.306,-7.122 -3.15,-13.928 0.178,-0.756 0.627,-2.441 -1.272,-2.922 -0.135,-0.168 -0.278,-0.318 -0.402,-0.453 0.589,-0.33 0.984,-0.952 0.984,-1.662 0,-1.059 -0.864,-1.912 -1.957,-1.912 -1.085,0 -1.961,0.853 -1.961,1.912 0,0.288 0.066,0.569 0.191,0.818 -0.376,0.108 -0.779,0.296 -1.229,0.541 -1.759,-0.395 -2.755,1.064 -3.166,2.124 -4.506,4.821 -9.07,8.272 -9.969,10.526 -0.271,2.081 -0.139,7.213 1.305,15.391 -1.855,0.802 -2.033,2.349 -0.949,3.808 -1.662,0.48 -1.763,1.631 -0.805,2.745 -0.322,1.367 0.042,2.204 0.949,2.872 -4.235,16.887 -8.66,31.929 -15.169,51.704 -1.217,-0.307 -6.649,0.614 -10.148,-0.734 -3.193,-4.526 -5.025,-7.47 -6.964,-11.301 4.783,1.312 6.677,1.009 12.478,-0.074 -6.471,-3.631 -8.625,-5.209 -12.916,-11.77 5.445,-2.511 9.006,-4.656 11.498,-7.759 1.418,7.552 3.509,11.636 8.275,15.031 0.404,-1.302 0.799,-2.6 1.198,-3.901 l 0,-136.77 c 0,-0.906 0.744,-1.643 1.647,-1.643 0.907,0 1.639,0.737 1.639,1.643 l 0,125.656 c 1.844,-6.392 3.595,-12.831 5.231,-19.307 -0.562,-0.887 -0.814,-1.893 -0.772,-2.991 -0.775,-1.539 -0.631,-3.167 0.307,-4.407 -0.222,-1.49 0.212,-2.948 1.297,-4.069 -0.465,-2.822 -0.832,-5.682 -1.038,-8.523 -0.124,-1.885 -0.232,-4.073 0.019,-5.962 l 0.035,-0.349 0.132,-0.334 c 0.771,-1.916 2.821,-3.866 4.313,-5.302 1.995,-1.908 3.998,-3.762 5.904,-5.762 0.733,-1.532 1.961,-2.737 3.499,-3.233 l 0,-56.088 c 0,-0.903 0.74,-1.647 1.643,-1.647 0.896,0 1.635,0.744 1.635,1.647 l 0,52.998 c 0.585,-0.235 1.229,-0.361 1.891,-0.361 2.708,0 4.902,2.138 4.902,4.783 0,0.335 -0.035,0.665 -0.109,0.991 0.449,0.557 0.771,1.224 0.895,1.992 0.124,0.691 0.089,1.313 -0.016,1.958 0.74,2.676 1.582,5.325 2.294,8.009 0.539,2.004 1.182,4.591 0.71,6.649 l -0.016,0.1 -0.039,0.092 c -0.608,1.996 -2.577,4.326 -3.917,5.923 -2.05,2.442 -4.204,4.807 -6.324,7.191 0.082,0.771 -0.007,1.508 -0.271,2.176 l 0,64.143 c 2.29,1.409 4.634,2.212 6.622,2.212 4.022,3.444 6.413,4.368 11.833,5.562 -6.548,-7.689 -3.937,-63.728 -4.149,-110.61 z"
             style="fill:#ffffff;stroke:none"
             inkscape:connector-curvature="0" />
          <path
             id="path30"
             d="m 218.046,491.88 3.611,-1.098 c 0.507,-0.503 1.162,-0.872 1.86,-1.082 0.294,-0.204 0.616,-0.381 0.949,-0.526 -3.991,-15.261 -8.168,-30.487 -12.263,-45.731 l 0,50.741 c 0.798,-0.861 1.805,-1.544 2.898,-1.878 0.895,-0.549 1.895,-0.638 2.945,-0.426 z"
             style="fill:#ffffff;stroke:none"
             inkscape:connector-curvature="0" />
          <path
             id="path32"
             d="m 381.179,444.967 c -1.318,4.96 -2.596,9.924 -3.883,14.891 -2.274,8.876 -4.537,17.794 -6.994,26.639 2.988,3.148 6.123,5.978 8.521,6.569 1.174,2.2 2.747,4.158 4.502,5.775 l 0,-55.59 c -0.539,0.794 -1.247,1.386 -2.146,1.716 z"
             style="fill:#ffffff;stroke:none"
             inkscape:connector-curvature="0" />
          <path
             id="path34"
             d="m 334.309,443.336 1.155,0 0,1.65 2.216,0 0,-2.891 -1.066,0 0,-1.451 1.066,0 0,-2.269 -1.066,0 0,1.24 -1.15,0 0,-1.24 -1.155,0 0,1.24 -1.19,0 0,-1.24 -1.197,0 0,2.269 1.197,0 0,1.451 -1.197,0 0,2.891 2.387,0 0,-1.65 z"
             style="fill:#ffffff;stroke:none"
             inkscape:connector-curvature="0" />
          <path
             id="path36"
             d="m 328.846,446.633 -1.193,0 0,2.277 1.193,0 0,1.447 -1.193,0 0,2.894 2.379,0 0,-1.655 1.162,0 0,1.655 2.221,0 0,-2.894 -1.074,0 0,-1.447 1.074,0 0,-2.277 -1.074,0 0,1.244 -1.147,0 0,-1.244 -1.162,0 0,1.244 -1.186,0 0,-1.244 z"
             style="fill:#ffffff;stroke:none"
             inkscape:connector-curvature="0" />
          <path
             id="path38"
             d="m 320.31,446.633 -1.197,0 0,2.277 1.197,0 0,1.447 -1.197,0 0,2.894 2.391,0 0,-1.655 1.15,0 0,1.655 2.229,0 0,-2.894 -1.074,0 0,-1.447 1.074,0 0,-2.277 -1.074,0 0,1.244 -1.155,0 0,-1.244 -1.15,0 0,1.244 -1.194,0 0,-1.244 z"
             style="fill:#ffffff;stroke:none"
             inkscape:connector-curvature="0" />
          <path
             id="path40"
             d="m 325.777,443.336 1.147,0 0,1.65 2.212,0 0,-2.891 -1.054,0 0,-1.451 1.054,0 0,-2.269 -1.054,0 0,1.24 -1.158,0 0,-1.24 -1.147,0 0,1.24 -1.197,0 0,-1.24 -1.198,0 0,2.269 1.198,0 0,1.451 -1.198,0 0,2.891 2.395,0 0,-1.65 z"
             style="fill:#ffffff;stroke:none"
             inkscape:connector-curvature="0" />
          <path
             id="path42"
             d="m 337.386,446.633 -1.202,0 0,2.277 1.202,0 0,1.447 -1.202,0 0,2.894 2.399,0 0,-1.655 1.143,0 0,1.655 2.218,0 0,-2.894 -1.06,0 0,-1.447 1.06,0 0,-2.277 -1.06,0 0,1.244 -1.158,0 0,-1.244 -1.143,0 0,1.244 -1.197,0 0,-1.244 z"
             style="fill:#ffffff;stroke:none"
             inkscape:connector-curvature="0" />
          <path
             id="path44"
             d="m 342.839,443.336 1.155,0 0,1.65 2.22,0 0,-2.891 -1.07,0 0,-1.451 1.07,0 0,-2.269 -1.07,0 0,1.24 -1.15,0 0,-1.24 -1.155,0 0,1.24 -1.189,0 0,-1.24 -1.195,0 0,2.269 1.195,0 0,1.451 -1.195,0 0,2.891 2.384,0 0,-1.65 z"
             style="fill:#ffffff;stroke:none"
             inkscape:connector-curvature="0" />
          <path
             id="path46"
             d="m 309.636,386.095 c 1.449,0 2.092,-0.211 4.451,-0.952 -0.475,0.741 -0.263,1.651 0.167,2.188 0,0.91 0.21,1.486 0.806,2.192 -0.077,0.703 0.047,1.117 0.477,1.529 0.337,2.441 0.984,3.715 2.604,6.733 -1.197,0.457 -2.267,1.282 -2.267,2.848 0,2.196 2.356,3.064 4.057,3.064 0.856,1.316 1.67,1.732 2.778,1.732 1.155,0 2.003,-0.416 2.855,-1.732 1.706,0 4.092,-0.868 4.092,-3.064 0,-1.566 -1.108,-2.391 -2.297,-2.848 1.619,-3.018 2.297,-4.292 2.603,-6.733 0.52,-0.412 0.601,-0.826 0.554,-1.529 0.555,-0.706 0.767,-1.282 0.767,-2.192 0.388,-0.537 0.64,-1.447 0.128,-2.188 2.341,0.741 3.034,0.952 4.526,0.952 4.65,-0.046 5.669,-1.984 7.127,-4.135 -4.14,0.907 -5.159,-2.602 -8.754,-2.602 1.457,-0.081 2.859,-2.73 2.859,-6.492 0,-4.457 -4.007,-9.824 -8.656,-9.824 3.41,1.562 4.607,4.91 4.483,7.842 -0.135,3.805 -1.713,4.55 -3.205,5.54 -2.091,-1.155 -3.153,-0.783 -4.908,1.16 -0.338,-1.202 -1.198,-1.486 -2.174,-1.486 -0.938,0 -1.751,0.284 -2.135,1.486 -1.713,-1.943 -2.774,-2.315 -4.913,-1.16 -1.407,-0.99 -2.987,-1.735 -3.162,-5.54 -0.089,-2.932 1.113,-6.28 4.487,-7.842 -4.615,0 -8.586,5.367 -8.586,9.824 0,3.762 1.36,6.411 2.863,6.492 -3.595,0 -4.614,3.509 -8.748,2.602 1.41,2.151 2.522,4.089 7.121,4.135 z"
             style="fill:#ffffff;stroke:none"
             inkscape:connector-curvature="0" />
          <path
             id="path48"
             d="m 319.687,373.833 2.987,-1.574 3.247,1.612 -0.431,-3.343 2.43,-2.477 -3.371,-0.622 -1.875,-3.428 -1.619,3.428 -3.666,0.622 2.763,2.35 -0.465,3.432 z"
             style="fill:#ffffff;stroke:none"
             inkscape:connector-curvature="0" />
          <path
             id="path50"
             d="m 305.428,398.994 c -3.193,0.952 -2.809,1.117 -2.898,1.819 0.167,0.5 0.77,0.619 1.449,1.114 0.554,0.46 0.632,1.117 1.449,1.117 0.934,-0.284 1.449,-0.245 1.488,-2.971 0,2.895 0.604,2.599 1.29,2.895 0.852,0 0.766,-0.373 1.623,-0.995 0.845,-0.495 1.147,-0.414 1.325,-1.117 -0.093,-0.576 0.426,-1.033 -2.739,-1.904 2.936,0.833 3.115,0.46 3.63,-0.081 0.38,-0.656 -0.554,-1.109 -0.728,-1.735 -0.163,-0.66 -0.089,-1.113 -0.554,-1.524 -0.721,-0.084 -1.023,-0.58 -2.987,1.604 2.092,-2.349 1.573,-2.395 1.07,-3.013 -0.772,-0.5 -1.411,-0.039 -2.128,-0.084 -1.073,0 -1.124,-0.043 -1.805,0.33 -0.214,0.372 -1.02,0.706 1.034,2.814 -2.178,-2.231 -2.143,-1.532 -2.863,-1.532 -0.644,0.25 -0.387,0.875 -0.679,1.57 -0.212,0.661 -0.817,0.871 -0.565,1.489 0.519,0.584 0.476,1.075 3.588,0.204 z"
             style="fill:#ffffff;stroke:none"
             inkscape:connector-curvature="0" />
          <path
             id="path52"
             d="m 343.316,396.41 c -0.155,-3.182 -9.007,-3.401 -9.007,2.896 0.151,6.08 9.007,5.646 9.154,2.099 -2.338,1.516 -5.148,-0.219 -5.148,-2.099 0,-1.955 2.658,-3.836 5.001,-2.896 z"
             style="fill:#ffffff;stroke:none"
             inkscape:connector-curvature="0" />
          <path
             id="path54"
             d="m 132.199,333.036 c 2.138,-4.074 3.095,-7.534 3.879,-11.925 l -9.946,-5.121 c -1.869,-0.964 -2.737,-0.938 -3.968,0.686 l -2.887,3.878 -4.407,-2.273 9.161,-17.482 4.414,2.268 -0.992,3.16 c -0.597,2.046 -0.074,2.499 1.793,3.463 l 13.085,6.733 c -0.298,4.738 -0.759,12.501 -5.029,20.647 -8.234,15.71 -21.561,17.222 -38.7623,8.374 -15.703,-8.085 -24.4945,-21.733 -15.6023,-38.702 2.5639,-4.887 5.5436,-9.848 13.429,-15.288 l 11.5656,7.455 -2.794,5.337 -9.0431,-2.68 c -3.6613,2.819 -5.9165,4.949 -8.7136,10.285 -3.0297,5.778 -2.5965,9.294 -1.5156,12.673 1.2553,3.939 10.3101,10.577 15.9173,13.46 12.342,6.35 24.356,6.611 30.416,-4.948 z"
             style="fill:#ffffff;stroke:none"
             inkscape:connector-curvature="0" />
          <path
             id="path56"
             d="m 173.192,261.824 c 10.349,10.638 5.843,22.482 -1.739,29.731 -9.707,9.266 -19.707,8.729 -28.769,-0.585 l -22.342,-22.957 c -1.46,-1.501 -2.227,-1.813 -3.977,-0.603 l -3.743,2.53 -3.45,-3.547 15.161,-14.489 3.452,3.548 -2.688,3.612 c -1.283,1.689 -1,2.461 0.465,3.965 l 21.403,21.999 c 8.245,8.472 15.987,5.367 21.69,-0.081 2.426,-2.319 4.452,-5.528 4.63,-8.715 0.109,-2.657 -1.558,-6.046 -6.47,-11.098 L 145.88,243.62 c -1.465,-1.505 -2.232,-1.812 -3.98,-0.603 l -3.742,2.53 -3.449,-3.548 14.922,-14.253 3.448,3.542 -2.689,3.613 c -1.283,1.689 -1,2.461 0.465,3.966 l 22.337,22.957 z"
             style="fill:#ffffff;stroke:none"
             inkscape:connector-curvature="0" />
          <path
             id="path58"
             d="m 222.614,255.813 -5.54,2.653 -39.34,-38.091 c -2.193,-2.196 -4.049,-1.774 -6.056,-1.091 l -2.802,0.971 -2.161,-4.437 20.407,-9.767 2.127,4.361 -3.801,2.376 c -1.518,0.914 -1.984,1.501 -1.507,2.481 0.221,0.449 0.666,0.979 1.225,1.543 l 30.408,30.508 -6.661,-41.868 c -0.143,-0.675 -0.287,-1.351 -0.468,-1.727 -0.512,-1.053 -1.38,-1.098 -3.12,-0.453 l -4.243,1.478 -2.123,-4.362 18.889,-9.044 2.162,4.434 -2.662,1.646 c -1.786,1.133 -2.437,1.909 -2.065,4.976 l 7.331,53.413 z"
             style="fill:#ffffff;stroke:none"
             inkscape:connector-curvature="0" />
          <path
             id="path60"
             d="m 248.957,245.217 -0.763,-4.953 4.301,-1.413 c 2.03,-0.645 2.247,-1.439 1.93,-3.505 l -6.521,-42.175 c -0.32,-2.062 -0.804,-3.003 -2.93,-2.937 l -4.491,0.176 -0.712,-4.622 42.82,-6.495 1.693,14.269 -5.329,0.81 -1.395,-5.701 c -0.484,-2.038 -1.535,-2.219 -3.534,-1.915 l -19.327,2.933 2.996,19.399 19.493,-2.961 0.934,6.024 -19.493,2.96 3.394,21.955 19.409,-2.948 c 2.004,-0.303 2.949,-0.783 2.798,-2.872 l -0.457,-6.265 5.58,-0.848 2.758,14.534 -43.154,6.55 z"
             style="fill:#ffffff;stroke:none"
             inkscape:connector-curvature="0" />
          <path
             id="path62"
             d="m 319.582,207.759 7.431,1.018 c 3.089,0.421 5.77,0.706 8.466,-0.948 2.604,-1.582 3.929,-3.759 4.588,-8.473 1.034,-7.444 -3.793,-10.638 -11.31,-11.663 l -6.257,-0.856 -2.918,20.922 z m -3.356,24.071 c -0.286,2.066 0.016,2.952 2.07,3.486 l 5.331,1.401 -0.689,4.965 -21.954,-3.003 0.678,-4.88 4.529,-0.142 c 2.132,-0.041 2.57,-0.74 2.856,-2.81 l 5.858,-42.015 c 0.287,-2.068 0.059,-2.86 -1.984,-3.477 l -4.319,-1.348 0.677,-4.878 21.954,3.002 c 11.522,1.577 18.632,6.087 17.043,17.504 -1.636,11.744 -11.982,13.951 -17.345,13.979 1.696,0.652 3.472,3.171 4.711,5.869 l 7.201,15.483 c 1.709,3.605 3.894,4.999 5.983,5.287 0.918,0.127 2.475,-0.084 2.998,-0.18 l -1.049,4.492 c -0.737,0.406 -3.328,1.316 -6.835,0.836 -4.508,-0.618 -6.957,-4.406 -8.798,-8.285 l -8.729,-19.149 c -0.857,-1.804 -2.046,-3.651 -4.631,-4.004 l -3.006,-0.411 -2.55,18.278 z"
             style="fill:#ffffff;stroke:none"
             inkscape:connector-curvature="0" />
          <path
             id="path64"
             d="m 376.278,246.921 c -1.015,1.835 -1.081,2.653 0.611,3.943 l 3.55,2.783 -2.384,4.323 -18.486,-10.001 2.384,-4.323 4.286,1.459 c 2.007,0.707 2.669,0.207 3.675,-1.624 l 20.553,-37.292 c 1.01,-1.835 1.2,-2.872 -0.527,-4.093 l -3.604,-2.522 2.383,-4.323 12.425,6.723 3.852,55.539 18.451,-33.484 c 1.012,-1.831 1.271,-2.83 -0.453,-4.051 l -3.603,-2.518 2.383,-4.323 18.265,9.883 -2.379,4.318 -4.089,-1.639 c -1.971,-0.779 -2.754,-0.061 -3.762,1.774 l -24.836,45.058 -6.505,-3.52 -3.778,-55.501 -18.412,33.411 z"
             style="fill:#ffffff;stroke:none"
             inkscape:connector-curvature="0" />
          <path
             id="path66"
             d="m 458.424,297.366 c -10.776,10.216 -22.717,5.705 -30.002,-1.839 -9.322,-9.647 -8.741,-19.56 0.698,-28.505 l 23.255,-22.051 c 1.523,-1.444 1.836,-2.204 0.624,-3.943 l -2.538,-3.716 3.592,-3.405 14.565,15.08 -3.596,3.405 -3.635,-2.68 c -1.696,-1.274 -2.479,-0.998 -4.002,0.445 l -22.283,21.127 c -8.582,8.142 -5.475,15.828 0,21.494 2.329,2.415 5.564,4.435 8.776,4.623 2.682,0.118 6.114,-1.521 11.229,-6.37 L 476.9,270.366 c 1.523,-1.444 1.84,-2.204 0.628,-3.939 l -2.54,-3.72 3.589,-3.405 14.332,14.838 -3.591,3.405 -3.638,-2.676 c -1.698,-1.274 -2.48,-0.998 -4.003,0.445 l -23.253,22.052 z"
             style="fill:#ffffff;stroke:none"
             inkscape:connector-curvature="0" />
          <path
             id="path68"
             d="m 452.147,322.427 4.432,-2.226 2.697,3.608 c 1.252,1.709 2.08,1.67 3.96,0.726 l 38.175,-19.176 c 1.875,-0.944 2.402,-1.582 1.752,-3.593 l -1.346,-4.285 4.433,-2.23 9.757,19.065 -4.437,2.226 -2.921,-4.053 c -1.255,-1.713 -2.085,-1.671 -3.965,-0.726 l -40.653,20.42 7.582,14.819 c 0.915,1.788 1.67,2.53 3.627,1.735 l 5.864,-2.384 2.55,4.986 -13.068,7.126 -18.439,-36.038 z"
             style="fill:#ffffff;stroke:none"
             inkscape:connector-curvature="0" />
          <path
             id="path70"
             d="m 104.181,503.443 3.336,6.896 c 1.383,2.867 2.662,5.308 5.628,6.668 2.848,1.312 5.488,1.205 9.944,-0.91 7.04,-3.34 7.063,-9.26 3.692,-16.236 l -2.809,-5.808 -19.791,9.39 z m -22.7592,10.799 c -1.9529,0.929 -2.5496,1.69 -1.8481,3.736 l 1.8101,5.336 -4.6928,2.226 -9.8534,-20.384 4.6153,-2.189 2.6891,3.774 c 1.2515,1.789 2.1036,1.766 4.0605,0.837 L 117.932,488.72 c 1.957,-0.928 2.511,-1.57 1.887,-3.658 l -1.282,-4.442 4.614,-2.189 9.853,20.382 c 5.169,10.696 5.297,19.307 -5.501,24.428 -11.103,5.271 -18.885,-2.277 -21.95,-6.826 0.391,1.813 -0.783,4.753 -2.418,7.34 l -9.3302,14.912 c -2.1545,3.497 -2.1234,6.149 -1.1854,8.088 0.4103,0.853 1.4758,2.058 1.8591,2.449 l -4.4904,1.655 c -0.7675,-0.395 -3.0259,-2.089 -4.5993,-5.34 -2.0251,-4.189 -0.1318,-8.419 2.1853,-12.185 l 11.6393,-18.293 c 1.0776,-1.751 2.0036,-3.809 0.8456,-6.211 l -1.3526,-2.792 -17.2846,8.204 z"
             style="fill:#ffffff;stroke:none"
             inkscape:connector-curvature="0" />
          <path
             id="path72"
             d="m 151.851,546.533 c -4.599,0.321 -13.096,6.13 -18.594,11.62 -10.992,10.984 -12.659,22.659 -3.421,31.73 4.006,3.936 8.001,6.043 12.596,5.72 4.599,-0.323 13.1,-6.131 18.595,-11.62 10.992,-10.984 12.658,-22.659 3.421,-31.733 -4.003,-3.932 -7.998,-6.039 -12.597,-5.717 z m -28.749,45.688 c -13.058,-12.826 -8.577,-27.181 4.548,-40.302 11.601,-11.594 28.444,-16.831 43.535,-2.004 13.054,12.822 8.579,27.184 -4.552,40.303 -11.601,11.59 -28.444,16.828 -43.531,2.003 z"
             style="fill:#ffffff;stroke:none"
             inkscape:connector-curvature="0" />
          <path
             id="path74"
             d="m 172.65,632.571 1.891,-4.711 4.557,0.96 c 2.146,0.476 2.561,-0.1 3.521,-2.035 l 19.467,-40.415 c 0.604,-1.516 0.217,-2.407 -1.461,-3.348 l -3.994,-2.127 1.887,-4.71 16.118,6.342 -2.797,53.076 33.023,-41.186 17.087,6.727 -1.891,4.714 -4.703,-1.297 c -1.949,-0.495 -2.821,-0.188 -3.523,1.57 l -13.356,42.633 c -0.642,2.061 -0.736,2.764 1.151,3.873 l 4.468,2.591 -1.887,4.715 -20.637,-8.12 1.891,-4.714 4.545,1.236 c 1.868,0.457 2.752,-0.119 3.359,-1.635 l 13.473,-42.222 -34.953,42.737 -5.723,-2.255 2.472,-55.513 -18.324,40.123 c -0.592,1.708 -0.43,2.699 1.33,3.67 l 4.08,2.157 -1.887,4.711 -19.184,-7.547 z"
             style="fill:#ffffff;stroke:none"
             inkscape:connector-curvature="0" />
          <path
             id="path76"
             d="m 296.377,608.926 -0.922,3.878 -8.23,24.293 18.738,-0.139 -8.602,-24.17 -0.984,-3.862 z m 3.902,-17.492 9.973,9.591 -3.275,2.308 -9.961,-7.523 -9.729,7.646 -3.406,-2.269 9.888,-9.714 6.51,-0.039 z m -7.168,10.129 8.071,-0.061 18.958,52.107 c 1.062,3.001 2.018,3.513 4.192,3.923 l 3.387,0.576 0.038,5.072 -22.29,0.165 -0.035,-4.899 4.762,-0.81 c 1.561,-0.269 2.247,-0.96 2.239,-2.077 -0.004,-0.515 -0.093,-1.029 -0.36,-1.716 l -3.898,-10.884 -22.988,0.173 -3.565,10.68 c -0.252,0.688 -0.333,1.29 -0.329,1.809 0.008,1.285 0.794,1.969 2.36,2.214 l 4.688,0.738 0.035,4.898 -20.813,0.153 -0.043,-5.067 3.29,-0.626 c 2.17,-0.445 3.03,-0.967 4.049,-3.984 l 18.252,-52.384 z"
             style="fill:#ffffff;stroke:none"
             inkscape:connector-curvature="0" />
          <path
             id="path78"
             d="m 370.717,643.481 c 0.795,2 1.4,2.596 3.546,2.131 l 4.564,-0.944 1.868,4.722 -20.183,7.843 -1.872,-4.723 3.995,-2.38 c 1.895,-1.101 1.93,-1.95 1.139,-3.95 l -16.115,-40.72 c -0.794,-2.001 -1.495,-2.834 -3.61,-2.289 l -4.388,1.152 -1.868,-4.724 13.563,-5.271 46.783,33.697 -14.473,-36.56 c -0.79,-1.996 -1.414,-2.865 -3.529,-2.319 l -4.386,1.151 -1.868,-4.718 19.943,-7.751 1.868,4.718 -4.007,2.112 c -1.926,1.025 -1.868,2.111 -1.077,4.111 l 19.477,49.199 -7.106,2.761 -46.704,-33.726 14.44,36.478 z"
             style="fill:#ffffff;stroke:none"
             inkscape:connector-curvature="0" />
          <path
             id="path80"
             d="m 459.043,604.104 -16.986,13.352 -3.181,-3.969 3.119,-3.44 c 1.48,-1.601 1.267,-2.422 -0.082,-4.104 l -27.39,-34.196 c -1.344,-1.681 -2.103,-2.077 -4.017,-1.009 l -4.084,2.226 -3.181,-3.969 16.982,-13.357 3.181,3.97 -3.115,3.44 c -1.484,1.604 -1.267,2.422 0.078,4.104 l 27.389,34.196 c 1.349,1.681 2.105,2.073 4.019,1.005 l 4.087,-2.224 3.181,3.975 z"
             style="fill:#ffffff;stroke:none"
             inkscape:connector-curvature="0" />
          <path
             id="path82"
             d="m 481.662,583.011 -4.173,-3.075 2.115,-4.116 c 1.012,-1.931 0.593,-2.668 -1.146,-3.95 l -35.564,-26.189 c -1.739,-1.279 -2.782,-1.621 -4.285,-0.051 l -3.158,3.348 -3.898,-2.868 26.588,-35.449 11.663,9.229 -3.314,4.414 -5.18,-3.174 c -1.844,-1.144 -2.743,-0.523 -3.983,1.136 l -12.003,15.997 16.358,12.043 12.105,-16.131 5.078,3.739 -12.103,16.135 18.511,13.633 12.054,-16.067 c 1.244,-1.654 1.585,-2.687 -0.05,-4.107 l -4.914,-4.258 3.468,-4.618 12.631,8.656 -26.8,35.723 z"
             style="fill:#ffffff;stroke:none"
             inkscape:connector-curvature="0" />
          <path
             id="path84"
             d="m 529.645,500.791 -8.036,19.951 -4.75,-1.878 0.976,-4.518 c 0.481,-2.123 -0.112,-2.729 -2.127,-3.524 L 474.793,494.64 c -2.015,-0.798 -2.867,-0.764 -3.994,1.102 l -2.429,3.943 -4.751,-1.878 8.036,-19.951 4.752,1.878 -0.978,4.518 c -0.48,2.119 0.117,2.726 2.125,3.524 l 40.92,16.181 c 2.011,0.799 2.867,0.764 3.991,-1.101 l 2.426,-3.947 4.754,1.882 z"
             style="fill:#ffffff;stroke:none"
             inkscape:connector-curvature="0" />
        </g>
      </g>
    </g>
  </g>
</svg>
